PathFileType	4	(X/Y/Z)	..\data\2014001\dynamic\2014001_C4_04.trc
DataRate	CameraRate	NumFrames	NumMarkers	Units	OrigDataRate	OrigDataStartFrame	OrigNumFrames
100.000000	100.000000	4	52	mm	100.000000	0	155
Frame#	Time	L_IAS			L_IPS			R_IPS			R_IAS			L_FTC			L_FLE			L_FME			L_FAX			L_TTC			L_FAL			L_TAM			L_FCC			L_FM1			L_FM2			L_FM5			R_FTC			R_FLE			R_FME			R_FAX			R_TTC			R_FAL			R_TAM			R_FCC			R_FM1			R_FM2			R_FM5			CV7			TV10			SXS			SJN			L_SIA			L_SRS			L_SAA			L_SAE			L_HLE			L_HME			L_UOA			L_RSP			L_UHE			L_HM2			L_HM5			R_SIA			R_SRS			R_SAA			R_SAE			R_HLE			R_HME			R_UOA			R_RSP			R_UHE			R_HM2			R_HM5			
		X1	Y1	Z1	X2	Y2	Z2	X3	Y3	Z3	X4	Y4	Z4	X5	Y5	Z5	X6	Y6	Z6	X7	Y7	Z7	X8	Y8	Z8	X9	Y9	Z9	X10	Y10	Z10	X11	Y11	Z11	X12	Y12	Z12	X13	Y13	Z13	X14	Y14	Z14	X15	Y15	Z15	X16	Y16	Z16	X17	Y17	Z17	X18	Y18	Z18	X19	Y19	Z19	X20	Y20	Z20	X21	Y21	Z21	X22	Y22	Z22	X23	Y23	Z23	X24	Y24	Z24	X25	Y25	Z25	X26	Y26	Z26	X27	Y27	Z27	X28	Y28	Z28	X29	Y29	Z29	X30	Y30	Z30	X31	Y31	Z31	X32	Y32	Z32	X33	Y33	Z33	X34	Y34	Z34	X35	Y35	Z35	X36	Y36	Z36	X37	Y37	Z37	X38	Y38	Z38	X39	Y39	Z39	X40	Y40	Z40	X41	Y41	Z41	X42	Y42	Z42	X43	Y43	Z43	X44	Y44	Z44	X45	Y45	Z45	X46	Y46	Z46	X47	Y47	Z47	X48	Y48	Z48	X49	Y49	Z49	X50	Y50	Z50	X51	Y51	Z51	X52	Y52	Z52	

1	0	-228.828109741211	848.3752441406252	-438.1350708007814	-392.8528747558595	895.5435791015627	-339.9646606445313	-387.0562133789064	887.6380615234377	-251.3945465087891	-203.732406616211	857.0313110351565	-200.3735046386719	-330.0649108886719	777.8350830078127	-485.4171142578126	-444.4910888671876	443.776580810547	-431.545623779297	-410.0794677734376	427.0621337890626	-323.8627319335938	-483.3998107910157	392.149871826172	-430.9114685058595	-428.589080810547	351.7502136230469	-390.7409973144532	-613.2818603515626	96.86035919189456	-370.8133239746094	-579.8240966796876	103.3497619628907	-287.1084289550782	-662.1022949218751	75.3652801513672	-321.3366088867188	-486.2311401367189	23.31644630432129	-303.5140380859376	-479.7006225585939	28.52125930786134	-366.2956848144532	-538.7479858398439	18.3116683959961	-406.2026367187501	-283.4794616699219	755.4928588867189	-129.214584350586	-133.3892669677735	435.0623168945314	-163.4623718261719	-107.0950164794922	432.9153137207032	-284.8213195800782	-124.3083190917969	371.4749145507813	-162.3141174316407	-58.01945114135744	392.8643493652345	-205.7872772216797	-5.014860153198243	76.73318481445314	-204.1033020019532	28.63684463500977	113.1841659545899	-281.6990661621094	-13.70368194580078	21.13081359863282	-267.0437622070313	149.2691650390625	111.3591461181641	-253.5737609863282	136.8211059570313	114.5804672241211	-196.9952239990235	100.274169921875	71.88198089599611	-165.2242736816407	-359.1806030273438	1356.404174804688	-298.1737365722657	-415.8204345703126	1122.120483398438	-307.5581665039063	-180.7479705810547	1133.001098632813	-307.9089965820313	-228.572006225586	1293.28271484375	-298.7804260253907	-415.3511962890626	1166.042846679688	-408.2010192871095	-397.2998352050782	1295.782836914063	-392.6361694335939	-313.1597595214844	1297.4677734375	-497.8345031738282	-277.0841674804688	1310.31298828125	-475.8394470214845	-225.3676910400391	1035.212768554688	-569.3234252929689	-253.0070343017579	988.3060302734377	-502.2744445800782	-244.9600219726563	984.6516113281252	-554.1791381835939	-35.42216873168946	899.9276123046877	-470.6122436523439	-46.60576629638673	870.3899536132815	-545.2650146484376	40.89878463745118	859.3775024414065	-456.9619445800782	-2.217247009277344	805.615905761719	-532.6994018554689	-427.938446044922	1157.675903320313	-202.3121948242188	-402.6291503906251	1282.598754882813	-216.5672149658204	-332.5965270996094	1278.5771484375	-110.4047470092774	-282.7826232910157	1284.570556640625	-116.6804275512696	-365.4240112304688	986.8096923828127	-63.35190200805665	-385.6285400390626	976.2168579101565	-141.6708526611328	-394.3459777832032	970.3569335937502	-96.07178497314456	-300.2152404785157	763.6730346679689	-87.27124786376955	-358.8013305664063	772.2212524414065	-30.5614185333252	-286.0106506347657	671.9813232421876	-67.11042785644533	-379.2769470214844	694.7659301757814	-31.34194564819337	
2	0.01	-213.424545288086	846.5419921875002	-438.4677734375001	-376.7268371582032	893.5072021484377	-337.9746398925782	-370.1158142089844	885.2060546875002	-249.6332397460938	-186.4821166992188	854.5889892578127	-200.6654968261719	-315.9332275390626	776.9388427734377	-485.2411193847657	-433.4304504394532	444.2808532714845	-432.4384155273439	-398.668914794922	426.4831848144532	-324.7245178222657	-473.3094177246095	393.3158569335939	-431.762664794922	-419.3188781738282	351.5038146972657	-391.9372863769532	-610.5874023437501	101.081039428711	-372.3632202148438	-576.9724731445314	106.733627319336	-288.7273864746094	-659.9903564453126	81.03175354003908	-322.7588500976563	-486.1073303222657	23.16814231872559	-303.7635803222657	-479.2895812988282	28.13681411743165	-366.6183776855469	-538.3530273437501	18.29679870605469	-406.4293518066407	-265.7691345214844	752.9247436523439	-128.5196380615235	-116.7173843383789	432.9429931640626	-164.097396850586	-91.6778030395508	431.1755676269532	-285.6257324218751	-106.7514953613282	369.3653564453126	-163.1382141113282	-40.81095504760743	391.9917602539064	-206.9656677246094	17.63135147094727	76.35090637207033	-205.6900024414063	50.30834960937501	113.2932052612305	-283.4918518066407	9.041809082031252	20.92253494262696	-268.6376342773438	171.2706451416016	113.0214767456055	-256.4775085449219	159.5636291503907	115.5750350952149	-199.7349853515626	123.7974395751953	72.1583709716797	-167.9647369384766	-343.6550292968751	1354.042358398438	-296.8352966308594	-399.9570617675782	1119.721923828125	-306.1147155761719	-165.0971984863282	1130.835815429688	-307.2016296386719	-212.9861145019532	1291.106201171875	-297.7109375000001	-400.0346069335939	1163.686279296875	-406.7279357910157	-381.9884033203126	1293.578735351563	-391.2816772460939	-297.8966064453126	1295.125854492188	-496.5603027343751	-261.8195800781251	1308.003784179688	-474.5811157226564	-209.9691009521485	1033.090942382813	-568.1382446289064	-237.3121643066407	986.0830078125002	-501.0575256347657	-229.2540740966797	982.3725585937502	-552.9645996093751	-19.21672058105469	899.4920654296877	-468.8674316406251	-29.93148231506348	869.7525024414065	-543.4849853515626	57.38819885253908	859.5976562500002	-454.8494567871095	15.02316951751709	805.4066162109377	-530.6144409179689	-412.2279357910157	1154.983642578125	-201.3536376953126	-386.9847412109376	1280.149291992188	-215.3555145263672	-316.9936218261719	1275.97314453125	-109.2402801513672	-267.1169738769532	1281.946533203125	-115.504753112793	-350.2692565917969	984.301452636719	-63.05590820312501	-370.2636718750001	973.9628906250002	-141.498779296875	-379.1887512207032	968.257751464844	-95.94486236572267	-287.3681640625001	760.5170288085939	-86.81653594970705	-345.8338928222657	769.7691040039065	-30.09743690490723	-274.7781982421876	668.6143798828126	-66.82693481445314	-367.5648498535157	692.7042236328126	-30.89165878295899	
3	0.02	-197.5333251953126	844.8840942382815	-438.6446838378907	-360.2205505371094	891.6369628906252	-336.0833129882813	-352.8997802734376	883.0205688476565	-247.9391632080079	-168.8885345458985	852.4856567382815	-200.8200225830079	-301.1905822753907	776.0356445312502	-484.9175720214845	-421.3137817382814	444.6488342285157	-433.5137023925782	-386.0611572265626	425.621551513672	-325.7888793945313	-462.2694396972657	394.4264221191407	-432.7334899902345	-409.1093139648439	351.0903320312501	-393.4256286621095	-607.2994995117189	105.6469116210938	-373.9689331054688	-573.3356933593751	110.2937316894532	-290.5204772949219	-657.0750732421876	87.24340057373048	-324.0812683105469	-486.089569091797	22.96043014526368	-303.9728698730469	-479.059051513672	27.63462066650391	-366.9315490722657	-538.0403442382814	18.3734130859375	-406.5828247070314	-247.7261047363282	750.8108520507814	-127.7446365356446	-99.45200347900393	431.2933044433595	-164.6635131835938	-75.84333801269533	429.8408203125001	-286.2265930175782	-89.04023742675783	367.6513061523438	-163.8399658203125	-23.51421356201172	390.9373474121095	-208.2275390625001	37.09319686889649	75.57112121582033	-207.2817993164063	69.08289337158205	112.515251159668	-285.3446655273438	27.81214904785157	20.612548828125	-270.1679077148438	190.1663665771485	112.2815170288086	-259.4703979492188	179.2812042236328	114.3344879150391	-202.5390625000001	143.7348327636719	70.79653930664064	-170.7198333740235	-328.0811157226563	1351.832641601563	-295.3530883789063	-383.8431701660157	1117.38427734375	-304.5187072753907	-149.2303314208985	1128.93603515625	-306.3829650878907	-197.3488159179688	1289.158081054688	-296.5472412109376	-384.5549316406251	1161.3642578125	-404.9911499023439	-366.6745300292969	1291.44775390625	-389.7264709472657	-282.7556457519532	1292.876586914063	-495.1587829589845	-246.642318725586	1305.83203125	-473.2832336425782	-194.8886108398438	1031.009887695313	-566.8820800781251	-221.9313659667969	983.9316406250002	-499.7776794433595	-213.9294433593751	980.179870605469	-551.6726684570314	-3.488630056381226	898.6734008789065	-467.3120422363282	-13.84723567962647	868.827575683594	-541.9165649414064	73.30773925781251	859.2492675781252	-452.9974670410157	31.52297592163087	804.7971191406252	-528.8158569335939	-396.2697143554689	1152.4208984375	-200.168197631836	-371.1560668945313	1277.820068359375	-213.9499664306641	-301.1574096679688	1273.564208984375	-107.9243392944336	-251.2445526123047	1279.557250976563	-114.1988143920899	-334.7543945312501	981.9533691406252	-62.67899322509767	-354.5580749511719	971.8890380859377	-141.2493286132813	-363.6794433593751	966.3135375976565	-95.73413085937501	-274.1717529296876	757.6099243164064	-86.35276031494142	-332.4541015625001	767.4888305664064	-29.61581230163575	-263.1226196289063	665.4784545898439	-66.58164978027345	-355.4516601562501	690.8298339843751	-30.49222373962403	
4	0.03	-181.1493072509766	843.392517089844	-438.6045837402345	-343.3657226562501	889.9592895507815	-334.3814697265626	-335.4777221679688	881.1450805664065	-246.3831481933594	-151.0234832763672	850.7911376953127	-200.7854309082032	-285.7827758789063	775.0787353515627	-484.4439086914064	-408.0585327148439	444.8092346191407	-434.773651123047	-372.1566467285157	424.3953247070314	-327.0823364257813	-450.1957397460939	395.4302062988282	-433.8294677734376	-397.872039794922	350.4518127441407	-395.2285766601564	-603.2744750976564	110.5417175292969	-375.5970153808594	-568.7534790039064	113.9982299804688	-292.4681396484376	-653.1461791992189	94.03098297119142	-325.2591857910157	-486.1757812500001	22.74026679992676	-304.1230773925782	-479.0432739257814	27.03726959228516	-367.2092590332032	-537.7916870117189	18.63240432739258	-406.6384887695314	-229.4414215087891	749.2262573242189	-126.8925476074219	-81.59444427490236	430.184051513672	-165.1570434570313	-59.5699920654297	428.9708251953126	-286.6150207519532	-71.12873840332033	366.3915405273438	-164.3971099853516	-6.108479976654055	389.770965576172	-209.5684814453126	53.51644134521486	74.40765380859376	-208.8088989257813	85.07957458496095	110.8988952636719	-287.1978149414063	42.75805282592774	20.20457267761231	-271.5479431152344	206.1112670898438	109.1775360107422	-262.5166625976563	196.1279449462891	110.9015808105469	-205.3587188720704	160.224349975586	67.85646057128908	-173.3905029296875	-312.4664611816407	1349.816162109375	-293.7418212890626	-367.5017700195313	1115.153198242188	-302.7998657226563	-133.1603088378907	1127.336181640625	-305.4407043457032	-181.6652984619141	1287.470336914063	-295.2993774414063	-368.9145202636719	1159.114501953125	-403.0140075683595	-351.3540344238282	1289.426879882813	-387.9880676269532	-267.7283630371094	1290.755615234375	-493.6465148925782	-231.5437622070313	1303.832397460938	-471.9595642089845	-180.1498260498047	1028.999389648438	-565.5700073242189	-206.8768157958985	981.883728027344	-498.4458007812501	-199.0058593750001	978.1019287109377	-550.3135375976564	11.7475814819336	897.4873046875002	-465.9578857421876	1.637328982353211	867.6258544921877	-540.5778808593751	88.6510467529297	858.3546142578127	-451.4261474609376	47.27983856201173	803.795593261719	-527.3305664062501	-380.0680236816407	1150.032470703125	-198.7571716308594	-355.1462402343751	1275.651733398438	-212.3579254150391	-285.0870056152344	1271.389526367188	-106.4647293090821	-235.1725463867188	1277.445922851563	-112.7743530273438	-318.8891601562501	979.8048095703127	-62.20988845825197	-338.5252380371094	970.0293579101565	-140.9075622558594	-347.8225097656251	964.5557861328127	-95.42382812500001	-260.5888061523438	754.9890136718751	-85.8755340576172	-318.6443481445313	765.4170532226564	-29.10688972473145	-250.9995574951172	662.6156616210939	-66.3719940185547	-342.8932800292969	689.1719360351564	-30.1280746459961	
